<?xml version="1.0" encoding="UTF-8"?>
<svg id="_Слой_2" data-name="Слой 2" xmlns="http://www.w3.org/2000/svg" viewBox="0 0 420.03 252.29">
  <defs>
    <style>
      .cls-1 {
        fill: #fff;
        stroke-width: 0px;
      }
    </style>
  </defs>
  <g id="_Слой_1-2" data-name="Слой 1">
    <path class="cls-1" d="m418.86,247.61c-3.49,0-6.58-.12-9.29-.37-2.94-.61-5.86-1.97-8.74-4.1-2.75-2.03-5.61-5.07-8.61-9.03-.67-3.52-1.01-7.96-1.01-13.35V41.27c0-7.52.66-13.23,1.95-17.13,1.3-3.89,3.95-6.61,7.98-8.18,4.03-1.56,9.93-2.33,17.71-2.33.78,0,1.17-.78,1.17-2.33,0-.69-.09-1.19-.24-1.57h-101.22c-.11.38-.15.89-.15,1.57,0,1.56.24,2.33.78,2.33,8.04,0,14.07.72,18.09,2.15,4.03,1.42,6.74,4.03,8.18,7.78,1.42,3.77,2.14,9.41,2.14,16.94v110.83L275.67,9.72h-9.25l-33.99,74.71L91.67,225.65c-6.41-5.48-12.18-11.96-17.3-19.5-4.94-7.25-9.2-15.23-12.76-23.95L198.92,44.08l15.53-15.61v-15.1c-.79-1.14-2.32-2.09-4.61-2.85-7.28-3.37-17.21-5.97-29.78-7.78-12.6-1.82-24.34-2.73-35.24-2.73-18.95,0-37.04,2.93-54.3,8.76-17.27,5.84-32.71,14.22-46.34,25.11-13.62,10.91-24.4,24.01-32.31,39.33C3.95,88.52,0,105.78,0,124.97c0,14.54,2.65,29.28,7.98,44.2,5.31,14.92,13.62,28.68,24.91,41.27s25.89,22.7,43.8,30.36c15.56,6.65,33.89,10.42,54.96,11.29.2.12.44.2.73.2,1.65,0,3.23-.02,4.79-.03l-.11.03h87.97c1.3,0,1.94-.78,1.94-2.35s-.64-2.33-1.94-2.33c-6.41,0-12.05-.87-16.94-2.64l91.42-91.31,31.4,62.04c6.5,12.72,8.9,21.22,7.22,25.49-1.6,4.03-7.14,6.16-16.65,6.41-.75.02-1.51.02-2.3.02-.2,0-.34.15-.46.37-.43.35-.66.99-.66,1.97s.23,1.63.66,1.98c.12.21.26.37.46.37.14,0,.29,0,.44-.02v.02h91.13l.03-.03c.75.02,1.53.03,2.29.03.06,0,.11-.03.17-.03,1.92.02,3.8.03,5.6.03.78,0,1.17-.78,1.17-2.35s-.4-2.33-1.17-2.33ZM91.31,19.18c6.64-3.84,13.99-6.51,22.05-7.99l55.93,56.16-17.35,17.35-63.24-62.91-.61-.61c1.05-.7,2.14-1.39,3.22-2Zm-7.03,4.7l.43.41,64.08,63.56-15.93,15.94-64.49-63.3c4.52-6.45,9.83-11.99,15.91-16.61Zm-28.61,141.01c-4.42-15.7-6.62-32.51-6.62-50.42,0-20.75,3.05-38.98,9.15-54.7,2.11-5.45,4.58-10.47,7.42-15.09l63.76,62.59-69.77,69.8c-1.45-3.91-2.75-7.98-3.94-12.18ZM253.96,63.64l16.45,32.47-57.14,57.32,40.69-89.79Zm-88.29,163.14c-5.05,7.92-10.12,13.38-15.18,16.36-.17.11-.37.2-.53.29-3.2.44-6.45.69-9.8.69-13.5,0-25.83-3.37-36.98-10.13-2.73-1.65-5.39-3.46-7.93-5.43L226.52,97.42l-43.53,95.69c-6.5,14.54-12.27,25.75-17.33,33.67Zm37.94,16.2c-4.17-2.21-7.67-5.2-10.5-9-6.74-9.08-6.62-21.41.4-36.98l14.23-31.41,64.98-64.9,24.5,48.4-93.62,93.91Z"/>
  </g>
</svg>