
        <svg xmlns="http://www.w3.org/2000/svg" xmlns:xlink="http://www.w3.org/1999/xlink" version="1.1" width="3147.065936167905" 
        height="3122.853238315361" viewBox="0 0 3147.065936167905 3122.853238315361">
			
			<g transform="scale(7.353296808395259) translate(10, 10)">
				<defs id="SvgjsDefs1302"></defs><g id="SvgjsG1303" featureKey="rootContainer" transform="matrix(4.0032059941827205,0,0,4.0032059941827205,0.17792030054256,-0.036680409658503776)" fill="#000000"><path xmlns="http://www.w3.org/2000/svg" d="M101.8 83.6l-.2-29.5c0-6 .1-12.2-.2-18-.1-2.5-.1-5.1-.1-7.8 0-4.7-.1-9-.4-13.2l-.2-4.2c-.1-2.7-.2-5.3-.3-8V1h-7.3L77.2.7H66.6a25.7 25.7 0 0 0-5.5.6l-.6.3H49.8c-.1-.2-.8-.3-2.2-.4L34.3.3a130.5 130.5 0 0 0-18.8.1C12.3.6 9 .8 4.6.9L1.5.5H.4v1.2c-.2 2-.3 4.3-.3 7s0 6.8-.1 10.2 0 5.3 0 8a42.2 42.2 0 0 0 .4 6.9 20.3 20.3 0 0 1 .3 2.9c.1 3.8.4 4.8.8 5.5v17.6l-.2.5c.1 4-.1 7.6-.2 11.3-.3 7.4-.4 15-.1 22.5a25.5 25.5 0 0 0 .5 4.9v.8H6l-.2.2h5.4a51 51 0 0 1 8.6.4 21.1 21.1 0 0 0 3.8.3c6.6-.1 12.7.1 18.9.4h6.7l13.9-.3c6.1-.1 11.9-.5 18.3-.5h9.7l3.5-.2 2.8-.5h2.3v-1c.3 1.6.6 1.4 1-.8.1-.6.2-1.3.3-2s.3-2.6.5-3.4a51.3 51.3 0 0 0 .3-8.8z"></path></g><g id="SvgjsG1304" featureKey="symbolFeature-0" transform="matrix(0.7824070373972826,0,0,0.7824070373972826,164.8400474741107,69.88876249281613)" fill="#ffffff"><title xmlns="http://www.w3.org/2000/svg">04-Artificial Intelligence</title><g xmlns="http://www.w3.org/2000/svg" data-name="Layer 4"><path d="M95,96H34a1,1,0,0,1-1-.87A.57.57,0,0,1,33,95h0V87.76a1,1,0,0,1,.67-.94l38-13.16a1,1,0,0,1,.91.13,1,1,0,0,1,.42.82v9.68l22.38,9.79A1,1,0,0,1,96,95.2,1,1,0,0,1,95,96ZM80,94H90.2L80,89.54ZM41.57,94H78V88.66L71.67,85.9l-4,1.08-.52-1.93L71,84V76L35,88.47V93.7l16.17-4.36.52,1.94ZM75,92,59,92a4.5,4.5,0,1,1,4.24-2H75ZM59.5,90A2.5,2.5,0,1,0,57,87.5,2.5,2.5,0,0,0,59.5,90ZM21.82,87.19a11.19,11.19,0,0,1-2.72-.33,7.31,7.31,0,0,1-4.79-3.37c-1.15-2-1.24-4.7-.28-8a.5.5,0,0,1,.05-.13,3,3,0,0,0-1.17-3.74A1.81,1.81,0,0,1,12,69.76c.17-1.07,1.57-2,3.31-2.86-2-.18-3.86-.61-4.56-1.49a1.72,1.72,0,0,1-.3-1.56,10.3,10.3,0,0,1,.8-1.89,2.52,2.52,0,0,0,.46-1.42,1.39,1.39,0,0,0-1.06-1.1c-2.69-.72-6-2.09-6.54-4.51-.32-1.46.44-3,2.24-4.44a30.56,30.56,0,0,0,7.83-10.22,4.73,4.73,0,0,0,.43-2.6c-.66-5.74,1.74-14.86,8.6-22.32C28.19,9.92,37.36,3.54,52.67,4c15.57.49,25.33,7.36,30.78,13a38.89,38.89,0,0,1,8.2,12.39l.16.41a31,31,0,0,1-.94,24.43A31.33,31.33,0,0,1,72.43,70.75L25.9,86.5h0A12.8,12.8,0,0,1,21.82,87.19ZM15.93,76.1c-.78,2.74-.75,4.89.11,6.4a5.41,5.41,0,0,0,3.56,2.42,10,10,0,0,0,5.66-.31L71.79,68.85A29.33,29.33,0,0,0,89.06,53.44a29,29,0,0,0,.88-22.85c-.09-.26-.15-.4-.15-.4C89.68,29.91,81,6.93,52.61,6c-14.55-.44-23.23,5.56-27.95,10.69-6.39,7-8.67,15.62-8.08,20.73A6.87,6.87,0,0,1,16,41.13,32.67,32.67,0,0,1,7.6,52c-.81.67-1.73,1.64-1.55,2.48.23,1.07,2.18,2.22,5.1,3a3.4,3.4,0,0,1,2.52,2.78A4.26,4.26,0,0,1,13,62.88a8.05,8.05,0,0,0-.61,1.38c.82.57,4.65.9,8.49.71a1,1,0,0,1,.32,2c-3.3.92-6.47,2.27-7.16,3A5,5,0,0,1,15.93,76.1ZM60.5,57A21.5,21.5,0,1,1,82,35.5,21.53,21.53,0,0,1,60.5,57ZM47.25,49.79a19.45,19.45,0,0,0,26.12.34L69,45.74a14,14,0,0,1-17.81.12Zm23.16-5.44,4.4,4.39a19.47,19.47,0,0,0,0-26.49l-3.93,3.92a14,14,0,0,1-.45,18.18ZM45.87,22.63a19.46,19.46,0,0,0,0,25.73l3.87-3.87A14,14,0,0,1,49.26,26ZM52.6,44.44a12,12,0,0,0,15-.12L64,40.75a7,7,0,0,1-7.81.11Zm-1.92-17a12,12,0,0,0,.45,15.64l3.54-3.54A7,7,0,0,1,54.25,31Zm14.77,12L69,42.93a12,12,0,0,0,.44-15.33l-3.58,3.58a7,7,0,0,1-.41,8.21ZM60,30a5,5,0,1,0,5,5A5,5,0,0,0,60,30Zm0-2a7,7,0,0,1,4.54,1.67l3.54-3.54a12,12,0,0,0-16-.13l3.55,3.55A6.94,6.94,0,0,1,60,28Zm0-7a13.93,13.93,0,0,1,9.49,3.72l3.87-3.87a19.48,19.48,0,0,0-26.1.34l3.39,3.4A14,14,0,0,1,60,21ZM26.5,45.12a4.51,4.51,0,0,1-4.5-4.5V40h2v.62a2.5,2.5,0,1,0,5,0V40h2v.62A4.51,4.51,0,0,1,26.5,45.12Z"></path></g></g><g id="SvgjsG1305" featureKey="nameFeature-0" transform="matrix(5.084146341818192,0,0,5.084146341818192,104.49808658917344,126.3604907113536)" fill="#ffffff"><path d="M1.6 23.16 c1.96 -11.16 2.76 -15.56 8.36 -15.56 c4.12 0 4.8 2.52 4 8.56 l-3.72 0 c0.6 -4.36 0.36 -5.36 -0.84 -5.36 c-1.84 0 -2.2 1.96 -4.04 12.36 c-2.04 11.56 -2.32 13.24 -0.48 13.24 c1.32 0 1.88 -1 2.88 -6.16 l3.76 0 c-1.56 7.4 -3.04 10.16 -7.36 10.16 c-5.6 0 -4.8 -4.44 -2.56 -17.24 z M13.100000000000001 40 l2.96 -16.8 c1.96 -11.16 2.76 -15.56 8.76 -15.56 s5.2 4.4 3.24 15.56 l-2.96 16.8 l-4 0 l1.64 -9.2 l-4 0 l-1.64 9.2 l-4 0 z M19.3 27.6 l4 0 l0.76 -4.4 c1.84 -10.4 2.16 -12.36 0.16 -12.36 s-2.32 1.96 -4.16 12.36 z M29.6 40 l5.64 -32 l4 0 l-5.64 32 l-4 0 z"></path></g>
			</g>
		</svg>
	